<mxfile host="app.diagrams.net" modified="2020-10-07T13:36:56.718Z" agent="5.0 (Windows NT 10.0; Win64; x64) AppleWebKit/537.36 (KHTML, like Gecko) Chrome/85.0.4183.83 YaBrowser/20.9.0.933 Yowser/2.5 Safari/537.36" etag="eK9T36ncEbz-XmG9Iszo" version="13.7.7" type="github">
  <diagram id="C5RBs43oDa-KdzZeNtuy" name="Page-1">
    <mxGraphModel dx="782" dy="465" grid="1" gridSize="10" guides="1" tooltips="1" connect="1" arrows="1" fold="1" page="1" pageScale="1" pageWidth="827" pageHeight="1169" math="0" shadow="0">
      <root>
        <mxCell id="WIyWlLk6GJQsqaUBKTNV-0" />
        <mxCell id="WIyWlLk6GJQsqaUBKTNV-1" parent="WIyWlLk6GJQsqaUBKTNV-0" />
        <mxCell id="tAZLXzRYg8c3m-ofO4Eg-12" style="edgeStyle=orthogonalEdgeStyle;rounded=0;orthogonalLoop=1;jettySize=auto;html=1;exitX=0.5;exitY=1;exitDx=0;exitDy=0;entryX=0.5;entryY=0;entryDx=0;entryDy=0;" edge="1" parent="WIyWlLk6GJQsqaUBKTNV-1" source="tAZLXzRYg8c3m-ofO4Eg-0" target="tAZLXzRYg8c3m-ofO4Eg-2">
          <mxGeometry relative="1" as="geometry" />
        </mxCell>
        <mxCell id="tAZLXzRYg8c3m-ofO4Eg-0" value="Устанавливаем окончание сортировки(true)" style="rounded=0;whiteSpace=wrap;html=1;" vertex="1" parent="WIyWlLk6GJQsqaUBKTNV-1">
          <mxGeometry x="239" y="110" width="230" height="60" as="geometry" />
        </mxCell>
        <mxCell id="tAZLXzRYg8c3m-ofO4Eg-11" style="edgeStyle=orthogonalEdgeStyle;rounded=0;orthogonalLoop=1;jettySize=auto;html=1;exitX=0.5;exitY=1;exitDx=0;exitDy=0;entryX=0.5;entryY=0;entryDx=0;entryDy=0;" edge="1" parent="WIyWlLk6GJQsqaUBKTNV-1" source="tAZLXzRYg8c3m-ofO4Eg-1" target="tAZLXzRYg8c3m-ofO4Eg-0">
          <mxGeometry relative="1" as="geometry" />
        </mxCell>
        <mxCell id="tAZLXzRYg8c3m-ofO4Eg-1" value="Начало" style="rounded=1;whiteSpace=wrap;html=1;" vertex="1" parent="WIyWlLk6GJQsqaUBKTNV-1">
          <mxGeometry x="294" y="20" width="120" height="60" as="geometry" />
        </mxCell>
        <mxCell id="tAZLXzRYg8c3m-ofO4Eg-13" style="edgeStyle=orthogonalEdgeStyle;rounded=0;orthogonalLoop=1;jettySize=auto;html=1;exitX=0.5;exitY=1;exitDx=0;exitDy=0;entryX=0.5;entryY=0;entryDx=0;entryDy=0;" edge="1" parent="WIyWlLk6GJQsqaUBKTNV-1" source="tAZLXzRYg8c3m-ofO4Eg-2" target="tAZLXzRYg8c3m-ofO4Eg-8">
          <mxGeometry relative="1" as="geometry" />
        </mxCell>
        <mxCell id="tAZLXzRYg8c3m-ofO4Eg-2" value="Начинаем с двух первых элементов массива i=0" style="rounded=0;whiteSpace=wrap;html=1;" vertex="1" parent="WIyWlLk6GJQsqaUBKTNV-1">
          <mxGeometry x="239" y="200" width="230" height="60" as="geometry" />
        </mxCell>
        <mxCell id="tAZLXzRYg8c3m-ofO4Eg-18" style="edgeStyle=orthogonalEdgeStyle;rounded=0;orthogonalLoop=1;jettySize=auto;html=1;exitX=0;exitY=0.5;exitDx=0;exitDy=0;" edge="1" parent="WIyWlLk6GJQsqaUBKTNV-1" source="tAZLXzRYg8c3m-ofO4Eg-4">
          <mxGeometry relative="1" as="geometry">
            <mxPoint x="354" y="270" as="targetPoint" />
            <Array as="points">
              <mxPoint x="10" y="850" />
              <mxPoint x="10" y="270" />
            </Array>
          </mxGeometry>
        </mxCell>
        <mxCell id="tAZLXzRYg8c3m-ofO4Eg-4" value="Идем к следующему элементу i= i+1" style="rounded=0;whiteSpace=wrap;html=1;" vertex="1" parent="WIyWlLk6GJQsqaUBKTNV-1">
          <mxGeometry x="70" y="820" width="120" height="60" as="geometry" />
        </mxCell>
        <mxCell id="tAZLXzRYg8c3m-ofO4Eg-16" style="edgeStyle=orthogonalEdgeStyle;rounded=0;orthogonalLoop=1;jettySize=auto;html=1;exitX=0.5;exitY=1;exitDx=0;exitDy=0;entryX=0.5;entryY=0;entryDx=0;entryDy=0;" edge="1" parent="WIyWlLk6GJQsqaUBKTNV-1" source="tAZLXzRYg8c3m-ofO4Eg-5" target="tAZLXzRYg8c3m-ofO4Eg-4">
          <mxGeometry relative="1" as="geometry" />
        </mxCell>
        <mxCell id="tAZLXzRYg8c3m-ofO4Eg-5" value="Признак окончания сортировки меняем на false. Переставляем элементы t=d[i+1] d[i+1]=d[i] d[i]=t" style="rounded=0;whiteSpace=wrap;html=1;" vertex="1" parent="WIyWlLk6GJQsqaUBKTNV-1">
          <mxGeometry x="249" y="610" width="141" height="140" as="geometry" />
        </mxCell>
        <mxCell id="tAZLXzRYg8c3m-ofO4Eg-21" value="Нет" style="edgeStyle=orthogonalEdgeStyle;rounded=0;orthogonalLoop=1;jettySize=auto;html=1;exitX=1;exitY=0.5;exitDx=0;exitDy=0;entryX=1;entryY=0.5;entryDx=0;entryDy=0;" edge="1" parent="WIyWlLk6GJQsqaUBKTNV-1" source="tAZLXzRYg8c3m-ofO4Eg-6" target="tAZLXzRYg8c3m-ofO4Eg-0">
          <mxGeometry relative="1" as="geometry">
            <mxPoint x="680" y="258.6666564941406" as="targetPoint" />
          </mxGeometry>
        </mxCell>
        <mxCell id="tAZLXzRYg8c3m-ofO4Eg-22" value="Да" style="edgeStyle=orthogonalEdgeStyle;rounded=0;orthogonalLoop=1;jettySize=auto;html=1;exitX=0.5;exitY=1;exitDx=0;exitDy=0;entryX=0.5;entryY=0;entryDx=0;entryDy=0;" edge="1" parent="WIyWlLk6GJQsqaUBKTNV-1" source="tAZLXzRYg8c3m-ofO4Eg-6" target="tAZLXzRYg8c3m-ofO4Eg-9">
          <mxGeometry relative="1" as="geometry" />
        </mxCell>
        <mxCell id="tAZLXzRYg8c3m-ofO4Eg-6" value="Массив отсортирован?" style="rhombus;whiteSpace=wrap;html=1;" vertex="1" parent="WIyWlLk6GJQsqaUBKTNV-1">
          <mxGeometry x="520" y="440" width="150" height="110" as="geometry" />
        </mxCell>
        <mxCell id="tAZLXzRYg8c3m-ofO4Eg-15" value="Да" style="edgeStyle=orthogonalEdgeStyle;rounded=0;orthogonalLoop=1;jettySize=auto;html=1;exitX=1;exitY=0.5;exitDx=0;exitDy=0;entryX=0.5;entryY=0;entryDx=0;entryDy=0;" edge="1" parent="WIyWlLk6GJQsqaUBKTNV-1" source="tAZLXzRYg8c3m-ofO4Eg-7" target="tAZLXzRYg8c3m-ofO4Eg-5">
          <mxGeometry relative="1" as="geometry" />
        </mxCell>
        <mxCell id="tAZLXzRYg8c3m-ofO4Eg-19" value="Нет" style="edgeStyle=orthogonalEdgeStyle;rounded=0;orthogonalLoop=1;jettySize=auto;html=1;exitX=0;exitY=0.5;exitDx=0;exitDy=0;entryX=0.5;entryY=0;entryDx=0;entryDy=0;" edge="1" parent="WIyWlLk6GJQsqaUBKTNV-1" source="tAZLXzRYg8c3m-ofO4Eg-7" target="tAZLXzRYg8c3m-ofO4Eg-4">
          <mxGeometry relative="1" as="geometry">
            <Array as="points">
              <mxPoint x="60" y="495" />
              <mxPoint x="60" y="790" />
              <mxPoint x="130" y="790" />
            </Array>
          </mxGeometry>
        </mxCell>
        <mxCell id="tAZLXzRYg8c3m-ofO4Eg-7" value="Следующий меньше предыдущего?d[i]&gt;d[i+1]" style="rhombus;whiteSpace=wrap;html=1;" vertex="1" parent="WIyWlLk6GJQsqaUBKTNV-1">
          <mxGeometry x="80" y="440" width="160" height="110" as="geometry" />
        </mxCell>
        <mxCell id="tAZLXzRYg8c3m-ofO4Eg-14" value="Нет" style="edgeStyle=orthogonalEdgeStyle;rounded=0;orthogonalLoop=1;jettySize=auto;html=1;exitX=0;exitY=0.5;exitDx=0;exitDy=0;entryX=0.5;entryY=0;entryDx=0;entryDy=0;" edge="1" parent="WIyWlLk6GJQsqaUBKTNV-1" source="tAZLXzRYg8c3m-ofO4Eg-8" target="tAZLXzRYg8c3m-ofO4Eg-7">
          <mxGeometry relative="1" as="geometry" />
        </mxCell>
        <mxCell id="tAZLXzRYg8c3m-ofO4Eg-20" value="Да" style="edgeStyle=orthogonalEdgeStyle;rounded=0;orthogonalLoop=1;jettySize=auto;html=1;exitX=1;exitY=0.5;exitDx=0;exitDy=0;entryX=0.5;entryY=0;entryDx=0;entryDy=0;" edge="1" parent="WIyWlLk6GJQsqaUBKTNV-1" source="tAZLXzRYg8c3m-ofO4Eg-8" target="tAZLXzRYg8c3m-ofO4Eg-6">
          <mxGeometry relative="1" as="geometry" />
        </mxCell>
        <mxCell id="tAZLXzRYg8c3m-ofO4Eg-8" value="Все ли сравнили? i=length-2" style="rhombus;whiteSpace=wrap;html=1;" vertex="1" parent="WIyWlLk6GJQsqaUBKTNV-1">
          <mxGeometry x="249" y="290" width="210" height="110" as="geometry" />
        </mxCell>
        <mxCell id="tAZLXzRYg8c3m-ofO4Eg-9" value="Конец" style="rounded=1;whiteSpace=wrap;html=1;" vertex="1" parent="WIyWlLk6GJQsqaUBKTNV-1">
          <mxGeometry x="600" y="600" width="120" height="60" as="geometry" />
        </mxCell>
      </root>
    </mxGraphModel>
  </diagram>
</mxfile>
